<svg xmlns="http://www.w3.org/2000/svg" viewBox="0 0 101 101"><defs><style>.cls-1{fill:#69ffe8;}.cls-2{fill:#fff;}.cls-3{fill:#181818;}</style></defs><title>logo_white</title><g id="Layer_2" data-name="Layer 2"><g id="Logo_-_White_-_Stroke_copy_2" data-name="Logo - White - Stroke copy 2"><path class="cls-1" d="M18.06,59a1.55,1.55,0,0,1,0,.21v.09C18.13,59.79,18,58.5,18.06,59Z"/><path class="cls-1" d="M20,63.18l.11.07.07.08Z"/><path class="cls-1" d="M21.42,64.13h0l.05,0A.18.18,0,0,1,21.42,64.13Z"/><path class="cls-1" d="M31.5,61s0-.06,0-.1,0-.15,0-.23C31.61,60.29,31.48,61.41,31.5,61Z"/><path class="cls-1" d="M31.56,59.64l0-.1v0l0-.32C31.48,58.73,31.62,59.79,31.56,59.64Z"/><path class="cls-1" d="M36,58.2a5,5,0,0,1,.06.56,3,3,0,0,1-.08-.65S36,58.15,36,58.2Z"/><path class="cls-1" d="M36.71,38.52l0,.1a.61.61,0,0,1,0,.12l0,.06a3.59,3.59,0,0,1,.12-.35A.2.2,0,0,1,36.71,38.52Z"/><path class="cls-1" d="M37.46,37.12l-.06.1,0,.05C37.1,37.57,37.67,36.78,37.46,37.12Z"/><path class="cls-1" d="M46.86,36.64Z"/><path class="cls-1" d="M46.88,36.65l0,0,0,0Z"/><path class="cls-1" d="M49,40.94l0-.16v-.13C49,40.19,49.11,41.55,49,40.94Z"/><path class="cls-1" d="M53.61,60.52s0,.08,0,.13a.34.34,0,0,1,0,.1c0,.25-.07-.33-.07-.41A.59.59,0,0,1,53.61,60.52Z"/><path class="cls-1" d="M54.27,62.46l.07.08a.83.83,0,0,0,.07.13C54.62,63,54.16,62.35,54.27,62.46Z"/><path class="cls-1" d="M64.82,63.74h0l0,0Z"/><path class="cls-1" d="M65.63,62.85s0,0,0,0l0,0S65.64,62.83,65.63,62.85Z"/><path class="cls-1" d="M71.64,38.51s0,0,0,.06l0,.07,0,.06C71.59,38.57,71.77,38.11,71.64,38.51Z"/><path class="cls-1" d="M80.63,35.85h-.06l-.18-.1,0,0Z"/><path class="cls-1" d="M82.33,37.38l.1.14A.73.73,0,0,1,82.33,37.38Z"/><path class="cls-1" d="M83.45,40.69a1.13,1.13,0,0,0,0-.18.86.86,0,0,1,0-.16C83.44,40.45,83.52,41.09,83.45,40.69Z"/><path class="cls-2" d="M50.5,0A50.5,50.5,0,1,0,101,50.5,50.5,50.5,0,0,0,50.5,0ZM88.13,64a2.34,2.34,0,1,1-4.64,0V42.17c0-.31,0-.63,0-.94s0-.48-.06-.72a.17.17,0,0,0,0-.07c0-.19-.06-.39-.1-.58-.09-.41-.22-.82-.33-1.22l.06.16c.11.24-.05-.2-.09-.29a.89.89,0,0,0,0,.11l0-.12c-.09-.2-.18-.4-.28-.59s-.24-.37-.33-.56h0l-.18-.23c-.17-.21-.37-.39-.54-.59l.06,0c.33.24-.37-.38-.09-.08l-.2-.15a8.06,8.06,0,0,0-.72-.47l-.06,0c-.11,0-.23-.12-.33-.15a6.76,6.76,0,0,0-.93-.31l-.47-.11-.16,0h0l-.19,0,.15,0a2.79,2.79,0,0,1-.58-.07l-.55,0c-.38,0-.75,0-1.12,0-.22,0-.44,0-.66.06l0,0-.15,0h0c-.29.06-.59.13-.88.22l-.48.16-.26.11h0s0,0,0,0H74l0,0a3.79,3.79,0,0,0-.34.2c-.21.13-.4.28-.6.43.35-.37-.37.27-.06,0l0,0-.23.24c-.16.17-.3.35-.45.53l0,0h0a.59.59,0,0,0-.09.13.08.08,0,0,1,0,0,10.3,10.3,0,0,0-.56,1.16c0,.08-.05.16-.07.24s-.11.38-.16.57c-.08.35-.15.71-.21,1.06,0-.42-.05.23-.05.29a.76.76,0,0,0,0-.18s0-.07,0-.1c0,.15,0,.28,0,.43s0,.45,0,.67q0,4.59,0,9.2v6a7.59,7.59,0,0,1,0,.78c0-.21,0-.42,0-.63a3.68,3.68,0,0,0,0,.65c0,.32.09.64.1,1a14,14,0,0,1-.93,5.6,9.21,9.21,0,0,1-5.08,5.2,13.88,13.88,0,0,1-9.45.13,9.68,9.68,0,0,1-5.62-4.65A13.37,13.37,0,0,1,49,58.36V44.91c0-1.38,0-2.75,0-4.13a12.6,12.6,0,0,0-.36-1.5h0s0,0,0,0v0h0c-.08-.18-.15-.36-.24-.54s-.21-.43-.33-.64a1.18,1.18,0,0,1-.11-.19h0c-.3-.35-.57-.74-.9-1.07l-.06-.06,0,0a.08.08,0,0,0,0,0l0,0-.14-.11a5.33,5.33,0,0,0-.69-.48l-.41-.24-.05,0,.09,0c-.07,0-.26-.13-.16-.06l-.66-.25a9.9,9.9,0,0,0-1.07-.28l-.31-.06h-.07l-.2,0a12.73,12.73,0,0,0-2.31,0h0l-.13,0h0l-.38.09a6.72,6.72,0,0,0-.9.28l-.18.08h0l-.15.07h0c-.23.14-.46.28-.68.44l-.09.07s0,0-.15.12l0,.05h0c-.15.15-.29.3-.43.47s-.17.22-.25.32-.2.32-.29.5-.24.47-.35.71a1.54,1.54,0,0,1-.08.19,18.42,18.42,0,0,0-.54,2.31c0-.55,0,.13,0,.2a.75.75,0,0,0,0-.11c0,.11,0,.23,0,.34s0,.47,0,.71c0,3,0,6,0,9v6.41a5.22,5.22,0,0,1,0,1.31,5.62,5.62,0,0,1,.06.56,11.34,11.34,0,0,1-.67,4.77,9,9,0,0,1-5.11,5.26,13.94,13.94,0,0,1-9.53.1A10.78,10.78,0,0,1,15,64.54a13.36,13.36,0,0,1-1.57-6.63V36a2.54,2.54,0,0,1,2.32-2.63A2.52,2.52,0,0,1,18.06,36V52.48c0,2.25-.11,4.53,0,6.77l0,.2a9,9,0,0,0,.22.93,4.16,4.16,0,0,0,.16.5l-.09-.2c-.11-.26.06.24.12.34a.13.13,0,0,0,0-.06v0a8.06,8.06,0,0,0,.6,1.17.43.43,0,0,1,0,.07l-.09-.11.09.12s0,0,0,.05h0l0,0c.15.18.29.36.44.53l.44.44.34.27a7.68,7.68,0,0,0,.71.45l.3.17a10.64,10.64,0,0,0,1.89.6,3.66,3.66,0,0,0,.56.1h.19c.38,0,.75.06,1.13.07s.85,0,1.27,0c.21,0,.42,0,.63-.06h.07l.19,0a.1.1,0,0,0-.09,0,12.44,12.44,0,0,0,1.78-.51h0a0,0,0,0,0,0,0l.26-.12-.23.09a2.15,2.15,0,0,1,.31-.15,6.41,6.41,0,0,0,.61-.4l.11-.08a.19.19,0,0,0-.07.08c.09-.07.35-.28.2-.18a.44.44,0,0,0-.11.09l.1-.1c.15-.15.3-.32.44-.49l.1-.12a.29.29,0,0,0-.05.1s.14-.21.17-.26l-.11.13c.1-.18.2-.35.29-.53l.12-.27a.37.37,0,0,0,0,.09l0-.14,0-.08a.37.37,0,0,0-.05.11c0-.12.08-.27.1-.34.08-.29.13-.59.19-.89a.53.53,0,0,0,0-.13c0-.15,0-.29,0-.44s0-.5,0-.75a4.38,4.38,0,0,1-.07-.76c-.07-1.23,0-2.49,0-3.73V42.71a15.21,15.21,0,0,1,2-8.19A9.66,9.66,0,0,1,40.49,30,11.56,11.56,0,0,1,49.11,32a11.91,11.91,0,0,1,4.5,8.7c.12,3.72,0,7.46,0,11.17,0,2.76,0,5.53,0,8.29,0,.15,0,.3,0,.45a2.56,2.56,0,0,1,0,.27c.06.28.17.55.24.83h0a.36.36,0,0,1,0,.09c.09.18.18.36.28.53a.86.86,0,0,0,.1.16,3,3,0,0,0,.31.4,5.6,5.6,0,0,0,.41.43L55,63.3l.2.16-.06-.07.25.19a6.89,6.89,0,0,0,.73.46l.07,0h0l0,0h0l0,0a0,0,0,0,0,0,0h0l0,0h.1a10.71,10.71,0,0,0,1.91.56l.15,0h.25l.29,0c.43,0,.86.06,1.28.07s.83,0,1.24,0l.52,0h0l-.12,0s.36-.05.15,0a8.63,8.63,0,0,0,1.8-.52s0,0,0,0,.23-.12.28-.14l-.11,0,.26-.15c.21-.13.4-.27.6-.42l.05,0a.55.55,0,0,0-.1.11l.2-.18a.09.09,0,0,0,0,0l.09-.1a6.3,6.3,0,0,0,.48-.55l.09-.12v0c.12-.2.23-.4.33-.61s.08-.2.14-.32a.51.51,0,0,0,0,.09,1.3,1.3,0,0,1,.05-.14.79.79,0,0,0,0-.15s0,0,0,.05,0-.18.06-.22a10,10,0,0,0,.28-1.23s0,.07,0,.11v.08c0-.05,0-.2,0-.33,0,0,0,.08,0,.11,0-.16,0-.33,0-.5s0-.64,0-1,0-.47,0-.71c0,.1,0,.2,0,.3a2.76,2.76,0,0,0,0-.37s0-.08,0-.13v0c-.08-1,0-2.12,0-3.18V42.18a14.41,14.41,0,0,1,2.32-8.39A9.54,9.54,0,0,1,76,29.92a11.12,11.12,0,0,1,8.71,2.73c2.48,2.27,3.44,6,3.44,9.46Z"/><path class="cls-3" d="M18.1,59.34c0,.45-.13-.84,0-.3a1.55,1.55,0,0,1,0,.21Z"/><path class="cls-3" d="M18.53,61a.13.13,0,0,1,0,.06c-.06-.1-.23-.6-.12-.34l.09.2a.14.14,0,0,0,0,.06Z"/><path class="cls-3" d="M19.17,62.18h0l-.09-.12Z"/><path class="cls-3" d="M20.11,63.25l.07.08L20,63.18Z"/><path class="cls-3" d="M21.46,64.14l.05,0a.18.18,0,0,1-.09,0Z"/><path class="cls-3" d="M27.3,64.81a.1.1,0,0,1,.09,0l-.19,0h.1Z"/><path class="cls-3" d="M29.1,64.29l.23-.09-.26.12a0,0,0,0,1,0,0Z"/><path class="cls-3" d="M30.26,63.56c.15-.1-.11.11-.2.18a.19.19,0,0,1,.07-.08h0A.44.44,0,0,1,30.26,63.56Z"/><path class="cls-3" d="M30.8,62.91l.11-.13s-.13.21-.17.26a.29.29,0,0,1,.05-.1s0,0,0,0Z"/><path class="cls-3" d="M31.22,62.09a.37.37,0,0,1,.05-.11l0,.08,0,.14a.37.37,0,0,1,0-.09Z"/><path class="cls-3" d="M31.5,61s0-.06,0-.1,0-.15,0-.23C31.61,60.29,31.48,61.41,31.5,61Z"/><path class="cls-3" d="M31.56,59.64l0-.1v0l0-.32C31.48,58.73,31.62,59.79,31.56,59.64Z"/><path class="cls-3" d="M36,58.2a5,5,0,0,1,.06.56,3,3,0,0,1-.08-.65S36,58.15,36,58.2Z"/><path class="cls-3" d="M36.11,41.13c0-.07.08-.75,0-.2v0a.06.06,0,0,0,0,0A.75.75,0,0,1,36.11,41.13Z"/><path class="cls-3" d="M36.6,38.8a3.59,3.59,0,0,1,.12-.35.2.2,0,0,1,0,.07l0,.1a.61.61,0,0,1,0,.12Z"/><path class="cls-3" d="M37.46,37.12l-.06.1,0,.05C37.1,37.57,37.67,36.78,37.46,37.12Z"/><path class="cls-3" d="M39.26,35.65h0a.61.61,0,0,1-.21.09h0A.51.51,0,0,0,39.26,35.65Z"/><path class="cls-3" d="M43.47,35.2h0Z"/><path class="cls-3" d="M45.71,35.86l-.09,0s0,0-.07,0S45.64,35.82,45.71,35.86Z"/><path class="cls-3" d="M46.86,36.64Z"/><path class="cls-3" d="M46.88,36.65l0,0,0,0Z"/><path class="cls-3" d="M46.94,36.71a.08.08,0,0,1,0,0l0,0,0,0Z"/><path class="cls-3" d="M48.61,39.26s0,0,0,0h0a.06.06,0,0,1,0,0Z"/><path class="cls-3" d="M49,40.94l0-.16v-.13C49,40.19,49.11,41.55,49,40.94Z"/><path class="cls-3" d="M53.63,60.65a.34.34,0,0,1,0,.1c0,.25-.07-.33-.07-.41a.59.59,0,0,1,0,.18S53.62,60.6,53.63,60.65Z"/><path class="cls-3" d="M54.41,62.67c.21.37-.25-.32-.14-.21l.07.08A.83.83,0,0,0,54.41,62.67Z"/><path class="cls-3" d="M55.09,63.39l.06.07L55,63.3l.11.07Z"/><path class="cls-3" d="M56.14,64.08h0l0,0Z"/><path class="cls-3" d="M56.18,64.1a0,0,0,0,1,0,0l0,0Z"/><path class="cls-3" d="M56.2,64.11l.07,0,0,0h0a0,0,0,0,1,0,0Z"/><path class="cls-3" d="M58.43,64.78h0Z"/><path class="cls-3" d="M62.08,64.83c.21,0-.11,0-.15,0l.12,0Z"/><path class="cls-3" d="M64,64.24l.11,0s-.21.12-.28.14,0,0,0,0l.06,0Z"/><path class="cls-3" d="M64.82,63.74h0l0,0Z"/><path class="cls-3" d="M65,63.59a.09.09,0,0,1,0,0l-.2.18a.55.55,0,0,1,.1-.11Z"/><path class="cls-3" d="M65.64,62.82l0,0s0,0,0,.06S65.63,62.82,65.64,62.82Z"/><path class="cls-3" d="M66.18,61.71s0,0,0-.05a.79.79,0,0,1,0,.15,1.3,1.3,0,0,0-.05.14.51.51,0,0,1,0-.09l0-.08Z"/><path class="cls-3" d="M66.52,57.82v0a.06.06,0,0,1,0,0Z"/><path class="cls-3" d="M66.52,60.23s0-.07,0-.11c0,.13,0,.28,0,.33v-.08s0-.07,0-.11Z"/><path class="cls-3" d="M66.54,58a2.76,2.76,0,0,1,0,.37c0-.1,0-.2,0-.3a1.36,1.36,0,0,1,0-.2S66.53,58,66.54,58Z"/><path class="cls-3" d="M71.05,56.94c0,.21,0,.42,0,.63v0A3.68,3.68,0,0,1,71.05,56.94Z"/><path class="cls-3" d="M71.18,40.44h0s0,.07,0,.1a.76.76,0,0,1,0,.18C71.13,40.67,71.21,40,71.18,40.44Z"/><path class="cls-3" d="M71.56,38.7c0-.13.21-.59.08-.19,0,0,0,0,0,.06l0,.07Z"/><path class="cls-3" d="M72.29,37.23l0,0,0,.06Z"/><path class="cls-3" d="M73,36.39l0,0,0,0C72.66,36.66,73.38,36,73,36.39Z"/><path class="cls-3" d="M74,35.73h0Z"/><path class="cls-3" d="M75.66,35.2l.15,0,0,0Z"/><path class="cls-3" d="M78.52,35.2l.19,0h0s0,0,0,0Z"/><path class="cls-3" d="M80.35,35.71l.28.14h-.06l-.18-.1Z"/><path class="cls-3" d="M81.64,36.57l-.06,0,0,0C81.27,36.19,82,36.81,81.64,36.57Z"/><path class="cls-3" d="M83,38.51c0,.09.2.53.09.29L83,38.64s0,0,0,0A.89.89,0,0,1,83,38.51Z"/><path class="cls-3" d="M83.45,40.69a1.13,1.13,0,0,0,0-.18.86.86,0,0,1,0-.16C83.44,40.45,83.52,41.09,83.45,40.69Z"/></g></g></svg>