<svg xmlns="http://www.w3.org/2000/svg" viewBox="0 0 101 101"><defs><style>.cls-1{fill:#69ffe8;}</style></defs><title>logo_green_stroke</title><g id="Layer_2" data-name="Layer 2"><g id="Logo_-_White_-_Stroke" data-name="Logo - White - Stroke"><path class="cls-1" d="M50.5,0A50.5,50.5,0,1,0,101,50.5,50.5,50.5,0,0,0,50.5,0Zm0,96.09A45.59,45.59,0,1,1,96.09,50.5,45.59,45.59,0,0,1,50.5,96.09Z"/><path class="cls-1" d="M20.85,40.89V56.23a8.46,8.46,0,0,0,1.25,4.64,8.36,8.36,0,0,0,4.64,3.43,12.39,12.39,0,0,0,7.57-.07,6.73,6.73,0,0,0,4-3.68,7.07,7.07,0,0,0,.53-3.34c0-.26-.06-.52-.1-.78s0,.48.06.39a3.54,3.54,0,0,0,0-.92V51.42c0-2.09,0-4.19,0-6.28,0-.17,0-.33,0-.5l0-.3c0-.48-.07.41,0,.07a10.59,10.59,0,0,1,.46-1.76c.09-.27-.2.41-.06.16a1.47,1.47,0,0,1,.1-.22,4.82,4.82,0,0,1,.27-.5l.28-.41c.16-.25-.28.31-.08.1s.15-.18.23-.26l.39-.37c.23-.2.07,0-.08.06a2.22,2.22,0,0,0,.27-.19,6.22,6.22,0,0,1,.56-.32c.25-.12.15,0-.06,0a2.48,2.48,0,0,0,.35-.13c.23-.08.47-.14.71-.2l.36-.06c.05,0,.27,0,0,0s0,0,.08,0a10.5,10.5,0,0,1,1.86,0l.24,0c-.26,0,.15,0,.22,0a8.08,8.08,0,0,1,.85.2c.22.06.43.15.65.22s-.36-.17,0,0l.33.17a3.87,3.87,0,0,1,.55.34c.07,0,.34.25.09.05s0,0,.1.09c.28.25.5.54.77.81-.11-.11-.26-.36-.1-.12l.13.2a4,4,0,0,1,.27.44l.19.38c.13.27-.05-.1-.08-.2a2.34,2.34,0,0,0,.09.24,6.62,6.62,0,0,1,.31,1.16c.09.42,0-.52,0-.21v.09c0,1,0,1.93,0,2.9v9.41A8.37,8.37,0,0,0,50,61.07a7.6,7.6,0,0,0,4.46,3.26,12.46,12.46,0,0,0,7.5-.1,6.92,6.92,0,0,0,4-3.64,8.62,8.62,0,0,0,.74-3.92c0-.37-.1-.74-.12-1.12,0,.92.06.22.06-.11V44.77c0-.15,0-.31,0-.46l0-.31c0-.39-.09.53,0,.07q.07-.41.18-.81c0-.14.08-.27.13-.41s.05-.13.07-.2c.13-.38-.16.34,0,.09a7.17,7.17,0,0,1,.47-.86c.05-.08.13-.16.17-.24-.07.15-.28.33-.08.11s.25-.28.38-.41l.2-.18c.28-.25-.29.2,0,0s.35-.24.53-.34l.27-.14c.06,0,.39-.19.11-.06s.12,0,.18-.06l.38-.11c.23-.06.47-.11.71-.15,0,0,.14-.05.18,0s-.39,0-.16,0,.36,0,.54,0,.59,0,.89,0l.44,0c.11,0,.4.09.49,0s-.36-.06-.15,0l.25.05.37.08a6.25,6.25,0,0,1,.74.21,2.08,2.08,0,0,0,.32.12s-.36-.17-.2-.08l.19.09a5.3,5.3,0,0,1,.57.33l.24.16c.26.17-.29-.27-.08-.06l.46.43c.05.07.11.13.17.2s0,0-.08-.11a5,5,0,0,0,.32.48c.08.13.15.27.22.41a2,2,0,0,1,.1.21c.12.24-.17-.46-.06-.13s.2.58.27.87c0,.14.06.27.08.41a1.22,1.22,0,0,1,0,.17c.06.33,0-.3,0-.23s0,.41.06.61,0,.44,0,.66V60.52a1.86,1.86,0,0,0,1.84,1.84,1.88,1.88,0,0,0,1.84-1.84V45.17a8.39,8.39,0,0,0-2.73-6.63,9.68,9.68,0,0,0-6.91-1.91,7.87,7.87,0,0,0-5.69,2.72A9.13,9.13,0,0,0,63,45.21v8.73a18.82,18.82,0,0,0,.07,2.6c0,.26,0-.52,0-.38s0,.11,0,.17,0,.33,0,.5,0,.45,0,.67l0,.35s0,.06,0,.09c0,.26,0-.33,0-.3s0,.15,0,.23a6.34,6.34,0,0,1-.21.86c0,.11-.22.57-.08.23s-.07.15-.13.25-.17.29-.26.43-.23.31,0,0,0,0-.06.07-.25.26-.38.38l-.2.17c-.13.13.21-.15.2-.15a.58.58,0,0,0-.15.11c-.16.1-.32.2-.49.29l-.31.16c-.16.09.22-.09.21-.09l-.2.08a8,8,0,0,1-1.46.38c-.35.06.33,0,0,0l-.42,0c-.32,0-.65,0-1,0s-.68,0-1-.05l-.44,0s.36.06.15,0L56.45,61a8.82,8.82,0,0,1-1.51-.39l-.13,0c.29.12,0,0-.11,0s-.39-.21-.58-.32l-.22-.15c-.29-.19.17.15.09.08l-.42-.38c-.1-.11-.19-.23-.3-.34s.28.41.11.15l-.13-.2c-.08-.12-.15-.25-.22-.38s-.05-.11-.08-.16c-.15-.29,0,.06.07.18-.05-.22-.16-.44-.21-.67l-.06-.28c-.09-.45,0,.4,0,.17s0-.26,0-.39c0-1.93,0-3.87,0-5.8,0-2.6.09-5.22,0-7.82a8.08,8.08,0,0,0-3.57-6.09,10.26,10.26,0,0,0-6.84-1.45,7.84,7.84,0,0,0-5.61,3.18,9.59,9.59,0,0,0-1.56,5.73v8.65c0,.86-.06,1.74,0,2.61a1.63,1.63,0,0,0,.08.6c0,.1-.07-.64,0-.33a1.64,1.64,0,0,1,0,.22,3.51,3.51,0,0,1,0,.56c0,.11,0,.21,0,.31s0,.11,0,.16c0,.32.08-.47,0-.23s-.1.52-.18.78-.21.57-.07.22-.06.12-.11.22-.16.25-.23.38c-.19.3.15-.18.08-.1s-.11.14-.17.2a3.73,3.73,0,0,1-.35.34c-.06.06-.14.11-.19.17s.35-.25.19-.16L34,60.3a3.43,3.43,0,0,1-.49.28,1.69,1.69,0,0,0-.27.13l.21-.08-.2.07a9.66,9.66,0,0,1-1.5.37c-.2,0,.15,0,.16,0s-.17,0-.21,0l-.5,0c-.33,0-.67,0-1,0s-.6,0-.9-.05c-.12,0-.63,0-.14,0a3.69,3.69,0,0,1-.46-.08,8.77,8.77,0,0,1-1.5-.41.39.39,0,0,0-.15-.06s.36.17.19.08L27,60.47a6.22,6.22,0,0,1-.56-.32L26.16,60c-.29-.2.16.14.08.06s-.29-.24-.42-.37-.25-.26-.37-.4-.24-.3,0,0,0,0,0-.06a5.59,5.59,0,0,1-.47-.82l-.09-.18c-.12-.25.17.44.09.19l-.15-.4c-.07-.22-.12-.43-.17-.65a2.93,2.93,0,0,1-.05-.29c-.08-.38.05.52,0,.21-.12-1.59,0-3.21,0-4.8V40.89a1.86,1.86,0,0,0-1.84-1.84,1.88,1.88,0,0,0-1.84,1.84Z"/></g></g></svg>